<svg width="24" height="24" viewBox="0 0 24 24" xmlns="http://www.w3.org/2000/svg" class="text-transparent" data-testid="icon-cart" style="width:24px;height:24px" stroke="none">
  <path d="M1.5 1.9834H4.40598L5.18026 6.49992M5.18026 6.49992L6.89459 16.4999H20L21.5 6.49992H5.18026Z" stroke="#000" stroke-width="2" stroke-linecap="square" fill="none"></path>
  <path d="M9.25 22.9543C10.2165 22.9543 11 22.1708 11 21.2043C11 20.2378 10.2165 19.4543 9.25 19.4543C8.2835 19.4543 7.5 20.2378 7.5 21.2043C7.5 22.1708 8.2835 22.9543 9.25 22.9543ZM17.25 22.9543C18.2165 22.9543 19 22.1708 19 21.2043C19 20.2378 18.2165 19.4543 17.25 19.4543C16.2835 19.4543 15.5 20.2378 15.5 21.2043C15.5 22.1708 16.2835 22.9543 17.25 22.9543Z" stroke="#000" stroke-width="0.5"></path>
</svg>
