<svg width="24" height="24" viewBox="0 0 24 24" fill="none" xmlns="http://www.w3.org/2000/svg" class="text-foregrounds-contrasting" data-testid="icon-similar" stroke="none" style="width: 20px; height: 20px;"><path fill-rule="evenodd" clip-rule="evenodd" d="M16.7499 2.75016L19.2499 2.75C20.3545 2.74993 21.25 3.64538 21.25 4.75V5.75016V7.25016C21.25 7.80244 20.8023 8.25016 20.25 8.25016C19.6977 8.25016 19.25 7.80244 19.25 7.25016V5.75016V4.75L16.7501 4.75016C16.1978 4.75019 15.75 4.3025 15.75 3.75022C15.75 3.19793 16.1977 2.75019 16.7499 2.75016ZM4.75 2.75018C3.64543 2.75018 2.75 3.64561 2.75 4.75018V5.75018V7.25018C2.75 7.80247 3.19772 8.25018 3.75 8.25018C4.30229 8.25018 4.75 7.80247 4.75 7.25018V5.75018L4.75 4.75018H7.25C7.80229 4.75018 8.25 4.30247 8.25 3.75018C8.25 3.1979 7.80229 2.75018 7.25 2.75018H4.75ZM4.75 16.7502C4.75 16.1979 4.30228 15.7502 3.75 15.7502C3.19772 15.7502 2.75 16.1979 2.75 16.7502V19.2502C2.75 20.3548 3.64543 21.2502 4.75 21.2502H5.75H7.25C7.80228 21.2502 8.25 20.8025 8.25 20.2502C8.25 19.6979 7.80228 19.2502 7.25 19.2502H5.75H4.75V16.7502ZM9.75 12.0758C9.75 10.7915 10.7912 9.7503 12.0755 9.7503C13.3598 9.7503 14.401 10.7915 14.401 12.0758C14.401 13.3602 13.3598 14.4013 12.0755 14.4013C10.7912 14.4013 9.75 13.3602 9.75 12.0758ZM12.0755 7.7503C9.68659 7.7503 7.75 9.6869 7.75 12.0758C7.75 14.4647 9.68659 16.4013 12.0755 16.4013C12.9077 16.4013 13.6849 16.1663 14.3446 15.7591L16.5429 17.9574C16.9334 18.3479 17.5666 18.3479 17.9571 17.9574C18.3476 17.5669 18.3476 16.9337 17.9571 16.5432L15.7588 14.3449C16.166 13.6852 16.401 12.908 16.401 12.0758C16.401 9.6869 14.4644 7.7503 12.0755 7.7503Z" fill="white"></path></svg>